# xmcd
#
# Track frame offsets:
#	150
#	18171
#	35609
#	53562
#	71592
#	88142
#	103602
#	120876
#	135639
#	154892
#	170246
#	194631
#	209659
#	226731
#	245062
#	264852
#	281656
#	302693
#	322893
#	341946
#
# Disc length: 4797 seconds
#
# Revision: 0
# Processed by: cddbd v1.5.1PL2 Copyright (c) Steve Scherf et al.
# Submitted via: MusicManager 7.3.0.0 
#
DISCID=2212bb14
DTITLE=Various Artist - Alletiders Hits
DYEAR=2001
DGENRE=misc
TTITLE0=Anastacia - I'm Outta Love
TTITLE1=Ronan Keating - Life is a rollercoaster
TTITLE2=Emma Bunton - What took you so long
TTITLE3=Ricky Martin and Meja - Private Emotion
TTITLE4=Erann DD - Still Bellevin'
TTITLE5=Kylie Minogue - Spinning Around
TTITLE6=Keri Halliwell - Lift me up
TTITLE7=Jennifer Paige - Crash
TTITLE8=Robbie Williams - She's the one
TTITLE9=Brdr. Olsen - Look up Look Down
TTITLE10=Geroge Michael - Fastlove
TTITLE11=Barry White - Your'e my first my last my everything
TTITLE12=Westlife - Fool Again
TTITLE13=Marvin Gaye - (Sexual) Healing
TTITLE14=Sissel and Espen Lind - Where the lost ones go
TTITLE15=Tina turner - When the heartache is over
TTITLE16=Roxette - Wish I could Fly
TTITLE17=MLTR - You Took My Heart Away
TTITLE18=Marc Cohn - Walking in Memphis
TTITLE19=Lauren Wood - Fallen
EXTD=
EXTT0=
EXTT1=
EXTT2=
EXTT3=
EXTT4=
EXTT5=
EXTT6=
EXTT7=
EXTT8=
EXTT9=
EXTT10=
EXTT11=
EXTT12=
EXTT13=
EXTT14=
EXTT15=
EXTT16=
EXTT17=
EXTT18=
EXTT19=
PLAYORDER=
